<svg width="127" height="77" viewBox="0 0 127 77" fill="none" xmlns="http://www.w3.org/2000/svg">
<path d="M0.2 76L31.8 0.699998H32.4L63.9 76H52.8L29.2 15.9L36.1 11.4L9.7 76H0.2ZM18.7 48.6H45.6L48.8 57H15.9L18.7 48.6ZM126.711 70.6C125.511 71.4 123.878 72.3 121.811 73.3C119.744 74.3 117.311 75.1333 114.511 75.8C111.778 76.4667 108.778 76.8 105.511 76.8C99.9109 76.7333 94.8443 75.7333 90.3109 73.8C85.8443 71.8667 82.0443 69.2333 78.9109 65.9C75.7776 62.5667 73.3443 58.7333 71.6109 54.4C69.9443 50 69.1109 45.3333 69.1109 40.4C69.1109 35 69.9776 30.0333 71.7109 25.5C73.5109 20.9 76.0109 16.9333 79.2109 13.6C82.4109 10.2 86.1776 7.56667 90.5109 5.7C94.9109 3.83333 99.7109 2.9 104.911 2.9C109.244 2.9 113.178 3.5 116.711 4.69999C120.244 5.83333 123.278 7.2 125.811 8.79999L121.911 17.8C119.911 16.4667 117.478 15.2 114.611 14C111.811 12.8 108.678 12.2 105.211 12.2C101.678 12.2 98.3443 12.9 95.2109 14.3C92.0776 15.7 89.3109 17.6667 86.9109 20.2C84.5109 22.7333 82.6109 25.7 81.2109 29.1C79.8776 32.4333 79.2109 36.0333 79.2109 39.9C79.2109 43.8333 79.8109 47.5 81.0109 50.9C82.2776 54.2333 84.0443 57.1333 86.3109 59.6C88.6443 62.0667 91.4443 64 94.7109 65.4C97.9776 66.8 101.644 67.5 105.711 67.5C109.378 67.5 112.644 66.9333 115.511 65.8C118.378 64.6667 120.744 63.4 122.611 62L126.711 70.6Z" fill="black"/>
</svg>
