<svg width="192" height="147" viewBox="0 0 192 147" fill="none" xmlns="http://www.w3.org/2000/svg">
<path d="M29.4 105L35.4 89H97.4L103.4 105H29.4ZM66 38.6L42.4 94.2L40.8 97.8L20 147H1L66 -2.86102e-06L131 147H112L91.6 99L90 95L66 38.6Z" fill="white"/>
<path d="M111.686 65.8818C113.878 72.2658 117.233 77.4137 121.748 81.3256C126.343 85.2105 131.439 87.7336 137.036 88.895C142.634 90.0563 148.152 89.7031 153.59 87.8352C157.53 86.4817 160.941 84.7377 163.82 82.6032C166.778 80.4417 169.286 77.9944 171.343 75.2613C173.373 72.4494 174.914 69.4969 175.966 66.404L180.514 79.6448C178.102 83.9096 175.104 87.4946 171.52 90.3997C167.936 93.3048 163.11 95.7996 157.041 97.884C151.288 99.8601 145.537 100.69 139.789 100.373C134.093 99.9506 128.704 98.4975 123.621 96.0138C118.512 93.4513 114 89.9346 110.085 85.4638C106.17 80.993 103.157 75.6838 101.046 69.5363C98.9344 63.3888 98.0493 57.3488 98.3907 51.4161C98.732 45.4835 100.145 39.976 102.628 34.8935C105.085 29.7323 108.444 25.2744 112.705 21.5198C117.019 17.6593 122.052 14.741 127.805 12.7649C133.874 10.6805 139.215 9.68316 143.827 9.77297C148.44 9.86279 153.008 10.849 157.532 12.7317L162.079 25.9724C159.349 24.1789 156.332 22.8359 153.03 21.9436C149.701 20.9725 146.205 20.5431 142.543 20.6554C138.959 20.7407 135.197 21.4601 131.257 22.8137C125.819 24.6815 121.248 27.7932 117.546 32.1489C113.843 36.5045 111.373 41.6264 110.135 47.5144C108.949 53.2966 109.466 59.4191 111.686 65.8818Z" fill="white"/>
</svg>
