<svg width="49" height="39" viewBox="0 0 49 39" fill="none" xmlns="http://www.w3.org/2000/svg">
<path d="M7.84609 28.5L9.34609 24.5H24.8461L26.3461 28.5H7.84609ZM16.9961 11.9L11.0961 25.8L10.6961 26.7L5.49609 39H0.746094L16.9961 2.25L33.2461 39H28.4961L23.3961 27L22.9961 26L16.9961 11.9Z" fill="#1E1E1E"/>
<path d="M27.7363 17.3454C28.3658 18.8381 29.2531 20.0159 30.3984 20.8786C31.5621 21.7336 32.8236 22.2544 34.1829 22.4408C35.5421 22.6273 36.8575 22.4524 38.1291 21.9162C39.0505 21.5276 39.8385 21.0542 40.493 20.496C41.166 19.93 41.7263 19.303 42.1742 18.6149C42.6142 17.9084 42.9349 17.1762 43.1363 16.4184L44.4419 19.5144C43.9341 20.575 43.275 21.4825 42.4644 22.2367C41.6538 22.991 40.539 23.6673 39.12 24.2658C37.7747 24.8331 36.4114 25.1259 35.0299 25.1441C33.6591 25.1362 32.3449 24.8765 31.0873 24.3649C29.8219 23.835 28.684 23.0668 27.6735 22.0604C26.663 21.0539 25.8546 19.832 25.2484 18.3946C24.6422 16.9572 24.3315 15.5255 24.3161 14.0994C24.3007 12.6733 24.5488 11.3314 25.0603 10.0738C25.5641 8.79779 26.2954 7.6754 27.2543 6.70665C28.2239 5.7117 29.3813 4.93056 30.7266 4.36322C32.1456 3.76481 33.408 3.4386 34.5139 3.38461C35.6199 3.33062 36.7298 3.492 37.8437 3.86875L39.1494 6.9647C38.4662 6.57994 37.7219 6.30776 36.9166 6.14814C36.1035 5.9701 35.2595 5.9245 34.3845 6.01135C33.5279 6.09042 32.6389 6.32425 31.7175 6.71283C30.4459 7.24907 29.4025 8.06896 28.5873 9.17247C27.772 10.276 27.2644 11.5428 27.0644 12.9729C26.875 14.3768 27.099 15.8343 27.7363 17.3454Z" fill="#1E1E1E"/>
</svg>
