<svg width="89" height="73" viewBox="0 0 89 73" fill="none" xmlns="http://www.w3.org/2000/svg">
<rect width="89" height="73" fill="white"/>
<path d="M17.8461 43.5L19.3461 39.5H34.8461L36.3461 43.5H17.8461ZM26.9961 26.9L21.0961 40.8L20.6961 41.7L15.4961 54H10.7461L26.9961 17.25L43.2461 54H38.4961L33.3961 42L32.9961 41L26.9961 26.9Z" fill="#1E1E1E"/>
<path d="M37.7363 32.3454C38.3658 33.8381 39.2531 35.0159 40.3984 35.8786C41.5621 36.7336 42.8236 37.2544 44.1829 37.4408C45.5421 37.6273 46.8575 37.4524 48.1291 36.9162C49.0505 36.5276 49.8385 36.0542 50.493 35.496C51.166 34.93 51.7263 34.303 52.1742 33.6149C52.6142 32.9084 52.9349 32.1762 53.1363 31.4184L54.4419 34.5144C53.9341 35.575 53.275 36.4825 52.4644 37.2367C51.6538 37.991 50.539 38.6673 49.12 39.2658C47.7747 39.8331 46.4113 40.1259 45.0299 40.1441C43.6591 40.1362 42.3449 39.8765 41.0873 39.3649C39.8219 38.835 38.684 38.0668 37.6735 37.0604C36.663 36.0539 35.8546 34.832 35.2484 33.3946C34.6422 31.9572 34.3315 30.5255 34.3161 29.0994C34.3007 27.6733 34.5488 26.3314 35.0603 25.0738C35.5641 23.7978 36.2954 22.6754 37.2543 21.7066C38.2239 20.7117 39.3813 19.9306 40.7266 19.3632C42.1456 18.7648 43.408 18.4386 44.5139 18.3846C45.6199 18.3306 46.7298 18.492 47.8437 18.8688L49.1494 21.9647C48.4662 21.5799 47.7219 21.3078 46.9166 21.1481C46.1035 20.9701 45.2595 20.9245 44.3845 21.0113C43.5279 21.0904 42.6389 21.3242 41.7175 21.7128C40.4459 22.2491 39.4025 23.069 38.5873 24.1725C37.772 25.276 37.2644 26.5428 37.0644 27.9729C36.875 29.3768 37.099 30.8343 37.7363 32.3454Z" fill="#1E1E1E"/>
</svg>
